<svg xmlns="http://www.w3.org/2000/svg" width="233.886" height="60.272" viewBox="0 0 233.886 60.272">
  <g id="Grupo_336" data-name="Grupo 336" transform="translate(14893 -1728)">
    <path id="Caminho_1719" data-name="Caminho 1719" d="M532.094,479.35l-.042-2.958a6.063,6.063,0,0,1-5.544,2.953c-5.018,0-8.619-3.966-8.619-10.681,0-6.028,3.034-10.278,8.174-10.278a6.855,6.855,0,0,1,5.908,3.117V452.57h5.179v26.78Zm.081-10c0-4.33-1.5-6.473-4.411-6.473-3.075,0-4.531,2.062-4.531,6.151,0,3.56,1.862,6.028,4.492,6.028C530.233,475.056,532.175,472.71,532.175,469.351Z" transform="translate(-15345.106 1289.27)" fill="#0f0f0f"/>
    <path id="Caminho_1720" data-name="Caminho 1720" d="M609.492,488.2c.161,2.995,1.862,4.937,4.45,4.937a3.469,3.469,0,0,0,3.56-2.226h5.421a8.634,8.634,0,0,1-8.739,6.393c-6.635,0-9.955-3.643-9.955-10.843,0-6.151,3.521-10.116,9.63-10.116s9.346,3.966,9.346,11.856Zm8.294-3.317c-.081-2.953-2.023-4.369-4.086-4.369-2.1,0-3.843,1.62-4.047,4.369Z" transform="translate(-15410.322 1271.315)" fill="#0f0f0f"/>
    <path id="Caminho_1721" data-name="Caminho 1721" d="M702.2,497.289v-3.322a6.707,6.707,0,0,1-6.19,3.317c-3.966,0-6.757-2.953-6.757-7.325V476.32h5.26V489.15c0,2.508,1.133,3.724,3.359,3.724,2.672,0,4.086-1.9,4.086-4.531v-12.02h5.221v20.967Z" transform="translate(-15474.542 1271.33)" fill="#0f0f0f"/>
    <path id="Caminho_1722" data-name="Caminho 1722" d="M807.07,503.117V476.866h5.057l.042,2.427a6.063,6.063,0,0,1,5.544-2.953c5.018,0,8.619,3.966,8.619,10.681,0,6.028-3.034,10.278-8.174,10.278a6.858,6.858,0,0,1-5.908-3.114v8.935H807.07Zm13.918-16.46c0-3.56-1.862-6.028-4.492-6.028-2.508,0-4.45,2.346-4.45,5.705,0,4.33,1.5,6.473,4.411,6.473C819.533,492.807,820.988,490.745,820.988,486.657Z" transform="translate(-15563.537 1271.315)" fill="#0f0f0f"/>
    <path id="Caminho_1723" data-name="Caminho 1723" d="M897,488.2c.161,2.995,1.862,4.937,4.45,4.937a3.471,3.471,0,0,0,3.56-2.226h5.421a8.634,8.634,0,0,1-8.739,6.393c-6.635,0-9.955-3.643-9.955-10.843,0-6.151,3.521-10.116,9.629-10.116s9.346,3.966,9.346,11.856Zm8.3-3.317c-.081-2.953-2.023-4.369-4.086-4.369-2.1,0-3.844,1.62-4.047,4.369Z" transform="translate(-15627.493 1271.315)" fill="#0f0f0f"/>
    <path id="Caminho_1724" data-name="Caminho 1724" d="M988.058,465.7h4.9v5.664c0,4.208-2.427,7.971-8.051,7.971-5.828,0-8.132-3.724-8.132-8.012V452.56h5.179v5.813h11.007V462.1H981.949v8.7c0,2.508.891,3.966,3.036,3.966,2.1,0,3.075-1.417,3.075-3.885V465.7Z" transform="translate(-15691.721 1289.277)" fill="#0f0f0f"/>
    <path id="Caminho_1725" data-name="Caminho 1725" d="M1068.48,489.571c-.568,4.612-4.33,7.729-9.145,7.729-5.422,0-9.145-3.6-9.145-10.723s3.724-10.236,9.307-10.236c5.179,0,8.7,2.953,9.023,7.648h-5.3a3.609,3.609,0,0,0-3.763-3.278c-2.226,0-4.047,1.417-4.047,5.747s1.82,6.434,3.885,6.434a3.6,3.6,0,0,0,3.885-3.317h5.3Z" transform="translate(-15747.178 1271.315)" fill="#0f0f0f"/>
    <path id="Caminho_1726" data-name="Caminho 1726" d="M1143.984,479.347V466.478c0-2.995-1.01-3.924-3.4-3.924-2.63,0-4.086,2.185-4.086,4.856V479.35h-5.26V452.57h5.26V461.5c.768-1.781,3.2-3.117,5.867-3.117,4.086,0,6.919,2.388,6.919,6.354V479.35h-5.3Z" transform="translate(-15808.399 1289.27)" fill="#0f0f0f"/>
    <path id="Caminho_1727" data-name="Caminho 1727" d="M301.157,456.272H257.115A8.115,8.115,0,0,1,249,448.157V404.115A8.115,8.115,0,0,1,257.115,396h44.04a8.115,8.115,0,0,1,8.115,8.115v44.04A8.112,8.112,0,0,1,301.157,456.272Z" transform="translate(-15142 1332)" fill="#d80077"/>
    <path id="Caminho_1728" data-name="Caminho 1728" d="M320.733,450.785a16.107,16.107,0,0,0-2.39-6.806c-9.314-15.34-35.829-15.083-44.825.431a13.992,13.992,0,0,0-1.984,6.906c-.039,2.456.475,4.629,2.98,5.683s4.812.313,6.826-1.218a4.7,4.7,0,0,0,1.436-6.16c-.849-1.891-.868-3.567,1.27-4.467,2-.844,3.467.276,4.538,1.85,1.678,2.471,2.268,5.267.991,7.988-1.216,2.586-3.755,3.254-6.476,3.2-.766-.015-1.534-.051-2.3,0-3.557.22-4.494,1.585-2.875,4.636,2.236,4.213,5.128,8.343,9.2,10.349,0,0,1.015.455,1.461.607a25.406,25.406,0,0,0,7.572,1.194c4.475.071,8.14-1.023,10.877-3.457a21.91,21.91,0,0,0,5.079-5.355c1.348-1.962,3.623-3.978,2.628-6.449-1.076-2.672-4.047-1.346-6.2-1.5-2.74-.193-5.152-.886-6.224-3.6a7.614,7.614,0,0,1,1.517-7.88c1.157-1.421,2.745-2.532,4.678-1.424,1.842,1.059,1.5,2.723.8,4.377A4.7,4.7,0,0,0,310.9,455.8c2.18,1.617,4.651,2.3,7.163.9C320.312,455.451,320.975,453.234,320.733,450.785Z" transform="translate(-15159.02 1304.337)" fill="#fff"/>
  </g>
</svg>
